<svg width="40" height="40" viewBox="0 0 40 40" fill="none" xmlns="http://www.w3.org/2000/svg">
<g clip-path="url(#clip0_10368_198376)">
<mask id="mask0_10368_198376" style="mask-type:luminance" maskUnits="userSpaceOnUse" x="0" y="0" width="40" height="40">
<path d="M40 0H0V40H40V0Z" fill="white"/>
</mask>
<g mask="url(#mask0_10368_198376)">
<mask id="mask1_10368_198376" style="mask-type:alpha" maskUnits="userSpaceOnUse" x="0" y="0" width="40" height="40">
<path d="M22.4719 29.1008L24.4 31.0287C24.4875 31.1162 24.5156 31.2475 24.4688 31.3631L21.4531 39.0094C21.2188 39.6063 20.6406 40 20 40C19.3594 40 18.7812 39.6063 18.5469 39.0094L14.2062 28.0041L7.18437 35.0253C7.0625 35.1472 6.86562 35.1472 6.74375 35.0253L4.975 33.2567C4.85313 33.1348 4.85313 32.938 4.975 32.8161L13.6406 24.1511C13.9219 23.87 14.2937 23.6763 14.6906 23.6544C15.3844 23.6169 15.9969 24.0261 16.2406 24.6417L20.0031 34.1786L21.9625 29.207C22.0437 28.9977 22.3156 28.9414 22.475 29.1008H22.4719ZM32.8156 4.97444L25.7938 11.9958L21.4531 0.990358C21.175 0.287284 20.4281 -0.131435 19.6562 0.0373022C19.1344 0.152919 18.7188 0.546641 18.525 1.04348L15.5312 8.63355C15.4844 8.74917 15.5125 8.88041 15.6 8.96791L17.5281 10.8959C17.6875 11.0552 17.9562 10.999 18.0406 10.7896L20 5.81812L23.7625 15.3549C23.9563 15.8455 24.3813 16.2048 24.8969 16.3111C25.0031 16.333 25.1094 16.3423 25.2156 16.3423C25.625 16.3423 26.025 16.1798 26.3219 15.8861L35.0281 7.18053C35.15 7.05866 35.15 6.8618 35.0281 6.73994L33.2594 4.97131C33.1375 4.84945 32.9406 4.84945 32.8187 4.97131L32.8156 4.97444ZM10.7906 21.9575L5.81875 19.9983L15.3562 16.2361C15.9719 15.9923 16.3813 15.3799 16.3438 14.6862C16.3219 14.2894 16.1281 13.9175 15.8469 13.6363L7.18437 4.97444C7.0625 4.85258 6.86562 4.85258 6.74375 4.97444L4.975 6.74306C4.85313 6.86492 4.85313 7.06178 4.975 7.18366L11.9969 14.205L0.990625 18.5453C0.39375 18.7797 0 19.3578 0 19.9983C0 20.6389 0.39375 21.217 0.990625 21.4514L8.6375 24.4667C8.75313 24.5136 8.88437 24.4855 8.97187 24.398L10.9 22.47C11.0594 22.3106 11.0031 22.0419 10.7938 21.9575H10.7906ZM39.0094 18.5453L31.3625 15.5299C31.2469 15.483 31.1156 15.5112 31.0281 15.5987L29.1 17.5267C28.9406 17.6859 28.9969 17.9547 29.2062 18.0391L34.1781 19.9983L24.6406 23.7606C24.025 24.0044 23.6156 24.6167 23.6531 25.3105C23.675 25.7073 23.8687 26.0792 24.15 26.3603L32.8156 35.0253C32.9375 35.1472 33.1344 35.1472 33.2562 35.0253L35.025 33.2567C35.1469 33.1348 35.1469 32.938 35.025 32.8161L28.0031 25.7948L39.0094 21.4545C39.6063 21.2202 40 20.642 40 20.0014C40 19.3609 39.6063 18.7828 39.0094 18.5484V18.5453Z" fill="white"/>
</mask>
<g mask="url(#mask1_10368_198376)">
<path d="M-3.66718 42.6562L43.4375 42.6562L43.4375 -2.63687L-3.66718 -2.63687L-3.66718 42.6562Z" fill="url(#paint0_linear_10368_198376)"/>
</g>
</g>
</g>
<defs>
<linearGradient id="paint0_linear_10368_198376" x1="42.343" y1="42.0413" x2="-2.34374" y2="-2.65624" gradientUnits="userSpaceOnUse">
<stop stop-color="#FF6200"/>
<stop offset="0.398661" stop-color="#E433FF"/>
<stop offset="0.96" stop-color="#6842FF"/>
</linearGradient>
<clipPath id="clip0_10368_198376">
<rect width="40" height="40" fill="white"/>
</clipPath>
</defs>
</svg>
